<svg width="607" height="607" viewBox="0 0 607 607" fill="none" xmlns="http://www.w3.org/2000/svg">
<path d="M493.092 364.909C493.092 183.835 293.092 43 293.092 43C293.092 43 93.0918 183.835 93.0918 364.909C93.0918 418.269 114.163 469.443 151.67 507.174C189.178 544.905 240.049 566.102 293.092 566.102C346.135 566.102 397.006 544.905 434.513 507.174C472.02 469.443 493.092 418.269 493.092 364.909Z" fill="#009CDE"/>
<path d="M178.041 489.871C296.795 593.857 504.013 543.568 504.013 543.568C504.013 543.568 526.503 331.525 407.75 227.539C372.755 196.896 327.092 181.328 280.808 184.258C234.523 187.189 191.408 208.379 160.947 243.166C130.486 277.953 115.174 323.489 118.38 369.755C121.585 416.021 143.046 459.228 178.041 489.871Z" fill="url(#paint0_radial_0_1)"/>
<defs>
<radialGradient id="paint0_radial_0_1" cx="0" cy="0" r="1" gradientUnits="userSpaceOnUse" gradientTransform="translate(401.193 223.42) rotate(123.69) scale(166.184 127.075)">
<stop offset="0.15" stop-color="#FFC423"/>
<stop offset="0.9" stop-color="#CCEDF9"/>
</radialGradient>
</defs>
</svg>
