<svg width="1436" height="454" viewBox="0 0 1436 454" fill="none" xmlns="http://www.w3.org/2000/svg">
<path d="M101.949 346.871C220.703 450.857 427.921 400.568 427.921 400.568C427.921 400.568 450.411 188.525 331.658 84.5394C296.663 53.8964 251.001 38.3278 204.716 41.2583C158.432 44.1889 115.316 65.3786 84.8551 100.166C54.3939 134.953 39.082 180.489 42.2878 226.755C45.4936 273.021 66.9545 316.228 101.949 346.871Z" fill="url(#paint0_radial_0_1)"/>
<path d="M533.818 212.004H498V118.913H533.455C543.03 118.913 551.303 120.777 558.273 124.504C565.273 128.201 570.667 133.535 574.455 140.504C578.273 147.444 580.182 155.762 580.182 165.459C580.182 175.156 578.288 183.489 574.5 190.459C570.712 197.398 565.348 202.732 558.409 206.459C551.47 210.156 543.273 212.004 533.818 212.004ZM523.273 190.55H532.909C537.515 190.55 541.439 189.807 544.682 188.323C547.955 186.838 550.439 184.277 552.136 180.641C553.864 177.004 554.727 171.944 554.727 165.459C554.727 158.974 553.848 153.913 552.091 150.277C550.364 146.641 547.818 144.08 544.455 142.595C541.121 141.11 537.03 140.368 532.182 140.368H523.273V190.55ZM590.595 212.004V118.913H630.777C637.686 118.913 643.731 120.171 648.913 122.686C654.095 125.201 658.125 128.823 661.004 133.55C663.883 138.277 665.322 143.944 665.322 150.55C665.322 157.217 663.837 162.838 660.868 167.413C657.928 171.989 653.792 175.444 648.459 177.777C643.156 180.11 636.959 181.277 629.868 181.277H605.868V161.641H624.777C627.747 161.641 630.277 161.277 632.368 160.55C634.489 159.792 636.11 158.595 637.231 156.959C638.383 155.323 638.959 153.186 638.959 150.55C638.959 147.883 638.383 145.717 637.231 144.05C636.11 142.353 634.489 141.11 632.368 140.323C630.277 139.504 627.747 139.095 624.777 139.095H615.868V212.004H590.595ZM645.14 169.277L668.413 212.004H640.959L618.231 169.277H645.14ZM729.906 118.913H755.179V178.55C755.179 185.641 753.482 191.777 750.088 196.959C746.724 202.11 742.027 206.095 735.997 208.913C729.967 211.701 722.967 213.095 714.997 213.095C706.967 213.095 699.936 211.701 693.906 208.913C687.876 206.095 683.179 202.11 679.815 196.959C676.482 191.777 674.815 185.641 674.815 178.55V118.913H700.088V176.368C700.088 179.247 700.724 181.823 701.997 184.095C703.27 186.338 705.027 188.095 707.27 189.368C709.542 190.641 712.118 191.277 714.997 191.277C717.906 191.277 720.482 190.641 722.724 189.368C724.967 188.095 726.724 186.338 727.997 184.095C729.27 181.823 729.906 179.247 729.906 176.368V118.913ZM765.91 212.004V118.913H806.092C813.001 118.913 819.046 120.277 824.228 123.004C829.41 125.732 833.44 129.565 836.319 134.504C839.198 139.444 840.637 145.217 840.637 151.823C840.637 158.489 839.152 164.262 836.183 169.141C833.243 174.02 829.107 177.777 823.774 180.413C818.471 183.05 812.274 184.368 805.183 184.368H781.183V164.732H800.092C803.062 164.732 805.592 164.217 807.683 163.186C809.804 162.126 811.425 160.626 812.546 158.686C813.698 156.747 814.274 154.459 814.274 151.823C814.274 149.156 813.698 146.883 812.546 145.004C811.425 143.095 809.804 141.641 807.683 140.641C805.592 139.61 803.062 139.095 800.092 139.095H791.183V212.004H765.91ZM861.187 212.004H833.914L864.641 118.913H899.187L929.914 212.004H902.641L882.278 144.55H881.55L861.187 212.004ZM856.096 175.277H907.369V194.186H856.096V175.277ZM937.6 212.004V118.913H962.873V191.641H1000.51V212.004H937.6ZM1092.73 153.823H1067.09C1066.91 151.701 1066.43 149.777 1065.64 148.05C1064.88 146.323 1063.82 144.838 1062.46 143.595C1061.12 142.323 1059.5 141.353 1057.59 140.686C1055.68 139.989 1053.52 139.641 1051.09 139.641C1046.85 139.641 1043.26 140.671 1040.32 142.732C1037.41 144.792 1035.2 147.747 1033.68 151.595C1032.2 155.444 1031.46 160.065 1031.46 165.459C1031.46 171.156 1032.21 175.929 1033.73 179.777C1035.27 183.595 1037.5 186.474 1040.41 188.413C1043.32 190.323 1046.82 191.277 1050.91 191.277C1053.24 191.277 1055.34 190.989 1057.18 190.413C1059.03 189.807 1060.64 188.944 1062 187.823C1063.37 186.701 1064.47 185.353 1065.32 183.777C1066.2 182.171 1066.79 180.368 1067.09 178.368L1092.73 178.55C1092.43 182.489 1091.32 186.504 1089.41 190.595C1087.5 194.656 1084.79 198.413 1081.27 201.868C1077.79 205.292 1073.47 208.05 1068.32 210.141C1063.17 212.232 1057.18 213.277 1050.37 213.277C1041.82 213.277 1034.15 211.444 1027.37 207.777C1020.61 204.11 1015.26 198.717 1011.32 191.595C1007.41 184.474 1005.46 175.762 1005.46 165.459C1005.46 155.095 1007.46 146.368 1011.46 139.277C1015.46 132.156 1020.85 126.777 1027.64 123.141C1034.43 119.474 1042 117.641 1050.37 117.641C1056.24 117.641 1061.65 118.444 1066.59 120.05C1071.53 121.656 1075.87 124.004 1079.59 127.095C1083.32 130.156 1086.32 133.929 1088.59 138.413C1090.87 142.898 1092.24 148.035 1092.73 153.823ZM1124.22 212.004H1096.95L1127.68 118.913H1162.22L1192.95 212.004H1165.68L1145.31 144.55H1144.59L1124.22 212.004ZM1119.13 175.277H1170.4V194.186H1119.13V175.277ZM1200.64 118.913H1232.09L1253.73 171.641H1254.82L1276.45 118.913H1307.91V212.004H1283.18V158.186H1282.45L1261.73 211.277H1246.82L1226.09 157.823H1225.36V212.004H1200.64V118.913ZM1318.6 212.004V118.913H1358.79C1365.7 118.913 1371.74 120.277 1376.92 123.004C1382.1 125.732 1386.14 129.565 1389.01 134.504C1391.89 139.444 1393.33 145.217 1393.33 151.823C1393.33 158.489 1391.85 164.262 1388.88 169.141C1385.94 174.02 1381.8 177.777 1376.47 180.413C1371.17 183.05 1364.97 184.368 1357.88 184.368H1333.88V164.732H1352.79C1355.76 164.732 1358.29 164.217 1360.38 163.186C1362.5 162.126 1364.12 160.626 1365.24 158.686C1366.39 156.747 1366.97 154.459 1366.97 151.823C1366.97 149.156 1366.39 146.883 1365.24 145.004C1364.12 143.095 1362.5 141.641 1360.38 140.641C1358.29 139.61 1355.76 139.095 1352.79 139.095H1343.88V212.004H1318.6ZM548.182 276.004C547.939 272.974 546.803 270.61 544.773 268.913C542.773 267.217 539.727 266.368 535.636 266.368C533.03 266.368 530.894 266.686 529.227 267.323C527.591 267.929 526.379 268.762 525.591 269.823C524.803 270.883 524.394 272.095 524.364 273.459C524.303 274.58 524.5 275.595 524.955 276.504C525.439 277.383 526.197 278.186 527.227 278.913C528.258 279.61 529.576 280.247 531.182 280.823C532.788 281.398 534.697 281.913 536.909 282.368L544.545 284.004C549.697 285.095 554.106 286.535 557.773 288.323C561.439 290.11 564.439 292.217 566.773 294.641C569.106 297.035 570.818 299.732 571.909 302.732C573.03 305.732 573.606 309.004 573.636 312.55C573.606 318.671 572.076 323.853 569.045 328.095C566.015 332.338 561.682 335.565 556.045 337.777C550.439 339.989 543.697 341.095 535.818 341.095C527.727 341.095 520.667 339.898 514.636 337.504C508.636 335.11 503.97 331.429 500.636 326.459C497.333 321.459 495.667 315.065 495.636 307.277H519.636C519.788 310.126 520.5 312.52 521.773 314.459C523.045 316.398 524.833 317.868 527.136 318.868C529.47 319.868 532.242 320.368 535.455 320.368C538.152 320.368 540.409 320.035 542.227 319.368C544.045 318.701 545.424 317.777 546.364 316.595C547.303 315.413 547.788 314.065 547.818 312.55C547.788 311.126 547.318 309.883 546.409 308.823C545.53 307.732 544.076 306.762 542.045 305.913C540.015 305.035 537.273 304.217 533.818 303.459L524.545 301.459C516.303 299.671 509.803 296.686 505.045 292.504C500.318 288.292 497.97 282.55 498 275.277C497.97 269.368 499.545 264.201 502.727 259.777C505.939 255.323 510.379 251.853 516.045 249.368C521.742 246.883 528.273 245.641 535.636 245.641C543.152 245.641 549.652 246.898 555.136 249.413C560.621 251.929 564.848 255.474 567.818 260.05C570.818 264.595 572.333 269.913 572.364 276.004H548.182ZM581.97 340.004V246.913H622.152C629.061 246.913 635.106 248.277 640.288 251.004C645.47 253.732 649.5 257.565 652.379 262.504C655.258 267.444 656.697 273.217 656.697 279.823C656.697 286.489 655.212 292.262 652.243 297.141C649.303 302.02 645.167 305.777 639.834 308.413C634.531 311.05 628.334 312.368 621.243 312.368H597.243V292.732H616.152C619.122 292.732 621.652 292.217 623.743 291.186C625.864 290.126 627.485 288.626 628.606 286.686C629.758 284.747 630.334 282.459 630.334 279.823C630.334 277.156 629.758 274.883 628.606 273.004C627.485 271.095 625.864 269.641 623.743 268.641C621.652 267.61 619.122 267.095 616.152 267.095H607.243V340.004H581.97ZM677.247 340.004H649.974L680.701 246.913H715.247L745.974 340.004H718.701L698.338 272.55H697.61L677.247 340.004ZM672.156 303.277H723.429V322.186H672.156V303.277ZM778.933 246.913V340.004H753.66V246.913H778.933ZM870.175 246.913V340.004H849.085L815.448 291.095H814.903V340.004H789.63V246.913H811.085L844.175 295.641H844.903V246.913H870.175Z" fill="white"/>
<path d="M916.273 246.913H929.727L961.364 324.186H962.455L994.091 246.913H1007.55V340.004H997V269.277H996.091L967 340.004H956.818L927.727 269.277H926.818V340.004H916.273V246.913ZM1031.41 340.004H1019.59L1053.77 246.913H1065.41L1099.59 340.004H1087.77L1059.95 261.641H1059.22L1031.41 340.004ZM1035.77 303.641H1083.41V313.641H1035.77V303.641ZM1140.26 340.004H1111.53V246.913H1141.53C1150.56 246.913 1158.29 248.777 1164.71 252.504C1171.13 256.201 1176.06 261.52 1179.48 268.459C1182.91 275.368 1184.62 283.641 1184.62 293.277C1184.62 302.974 1182.89 311.323 1179.44 318.323C1175.98 325.292 1170.95 330.656 1164.35 334.413C1157.74 338.141 1149.71 340.004 1140.26 340.004ZM1122.8 330.004H1139.53C1147.22 330.004 1153.6 328.52 1158.66 325.55C1163.72 322.58 1167.5 318.353 1169.98 312.868C1172.47 307.383 1173.71 300.853 1173.71 293.277C1173.71 285.762 1172.48 279.292 1170.03 273.868C1167.57 268.413 1163.91 264.232 1159.03 261.323C1154.15 258.383 1148.07 256.913 1140.8 256.913H1122.8V330.004ZM1200.97 340.004V246.913H1232.42C1239.7 246.913 1245.66 248.156 1250.33 250.641C1255 253.095 1258.45 256.474 1260.7 260.777C1262.94 265.08 1264.06 269.974 1264.06 275.459C1264.06 280.944 1262.94 285.807 1260.7 290.05C1258.45 294.292 1255.01 297.626 1250.38 300.05C1245.74 302.444 1239.82 303.641 1232.6 303.641H1207.15V293.459H1232.24C1237.21 293.459 1241.21 292.732 1244.24 291.277C1247.3 289.823 1249.51 287.762 1250.88 285.095C1252.27 282.398 1252.97 279.186 1252.97 275.459C1252.97 271.732 1252.27 268.474 1250.88 265.686C1249.48 262.898 1247.26 260.747 1244.2 259.232C1241.13 257.686 1237.09 256.913 1232.06 256.913H1212.24V340.004H1200.97ZM1244.79 298.186L1267.7 340.004H1254.6L1232.06 298.186H1244.79ZM1291.56 246.913V340.004H1280.28V246.913H1291.56ZM1340.33 340.004H1311.6V246.913H1341.6C1350.63 246.913 1358.36 248.777 1364.78 252.504C1371.2 256.201 1376.13 261.52 1379.55 268.459C1382.98 275.368 1384.69 283.641 1384.69 293.277C1384.69 302.974 1382.96 311.323 1379.51 318.323C1376.05 325.292 1371.02 330.656 1364.42 334.413C1357.81 338.141 1349.78 340.004 1340.33 340.004ZM1322.87 330.004H1339.6C1347.29 330.004 1353.67 328.52 1358.73 325.55C1363.79 322.58 1367.57 318.353 1370.05 312.868C1372.54 307.383 1373.78 300.853 1373.78 293.277C1373.78 285.762 1372.55 279.292 1370.1 273.868C1367.64 268.413 1363.98 264.232 1359.1 261.323C1354.22 258.383 1348.14 256.913 1340.87 256.913H1322.87V330.004Z" fill="white"/>
<defs>
<radialGradient id="paint0_radial_0_1" cx="0" cy="0" r="1" gradientUnits="userSpaceOnUse" gradientTransform="translate(325.102 80.42) rotate(123.634) scale(242.111 185.135)">
<stop offset="0.15" stop-color="#CECECE"/>
<stop offset="0.9" stop-color="white"/>
</radialGradient>
</defs>
</svg>
