<svg width="1086" height="520" viewBox="0 0 1086 520" fill="none" xmlns="http://www.w3.org/2000/svg">
<path d="M344.997 221.17C338.077 221.17 333.577 227.39 333.577 233.68V285.09C333.577 291.38 338.077 297.6 344.997 297.6C351.917 297.6 356.407 291.67 356.407 285.09V233.68C356.407 227.1 351.917 221.17 344.997 221.17ZM382.087 283.7C382.087 317.82 359.547 322.61 346.417 322.61H343.567C330.437 322.61 307.897 317.82 307.897 283.7V235.06C307.897 200.94 330.437 196.15 343.567 196.15H346.417C359.547 196.15 382.087 200.94 382.087 235.06V283.7ZM285.007 165.4L233.647 357.09C232.807 360.23 229.957 362.41 226.707 362.41H222.087C217.367 362.41 213.927 357.93 215.147 353.37L266.507 161.68C267.347 158.54 270.197 156.36 273.447 156.36H278.067C282.787 156.36 286.227 160.84 285.007 165.4ZM184.567 308.16C184.567 314.47 179.447 319.59 173.137 319.59H170.317C164.007 319.59 158.887 314.47 158.887 308.16V210.6C158.887 204.29 164.007 199.17 170.317 199.17H173.137C179.447 199.17 184.567 204.29 184.567 210.6V308.16ZM259.947 41.8802C139.827 41.8802 42.4473 139.26 42.4473 259.38C42.4473 379.5 139.827 476.88 259.947 476.88C380.067 476.88 477.447 379.5 477.447 259.38C477.447 139.26 380.067 41.8802 259.947 41.8802Z" fill="white"/>
<path d="M951.178 284.7C946.968 284.7 943.548 288.12 943.548 292.33C943.548 296.54 946.968 299.96 951.178 299.96C955.388 299.96 958.808 296.54 958.808 292.33C958.808 288.12 955.388 284.7 951.178 284.7ZM1010.76 247.22V278.06C1010.76 284.98 1013.3 289.59 1020.09 289.59C1026.19 289.59 1029.07 285.84 1029.07 277.92V247.23C1029.07 240.89 1026.87 236.13 1019.92 236.13C1013.64 236.13 1010.76 240.16 1010.76 247.22ZM1044.32 247.94V277.48C1044.32 293.33 1035.17 301.11 1019.74 301.11C1004.31 301.11 995.498 293.33 995.498 277.62V247.5C995.498 232.08 1005.5 224.73 1020.25 224.73C1035.51 224.73 1044.32 232.96 1044.32 247.94ZM968.958 225.89H984.048V299.96H968.958V225.89ZM968.958 199.52H984.218V214.94H968.958V199.52ZM920.828 255.87V247.51C920.828 240.74 919.308 235.7 912.008 235.7C905.228 235.7 902.858 240.02 902.858 247.66V255.87H920.828ZM902.688 266.1V277.48C902.688 283.96 904.218 290.16 911.668 290.16C919.118 290.16 920.308 284.68 920.308 278.63V278.2H935.058V278.63C935.058 286.7 933.028 301.11 911.998 301.11C890.968 301.11 887.758 290.01 887.758 275.03V249.38C887.758 238.86 891.998 224.74 911.998 224.74C929.798 224.74 935.388 235.4 935.388 249.38V266.1H902.688ZM862.508 255.87V247.51C862.508 240.74 860.978 235.7 853.698 235.7C846.918 235.7 844.538 240.02 844.538 247.66V255.87H862.508ZM844.368 266.1V277.48C844.368 283.96 845.898 290.16 853.348 290.16C860.798 290.16 861.998 284.68 861.998 278.63V278.2H876.748V278.63C876.748 286.7 874.718 301.11 853.698 301.11C832.678 301.11 829.458 290.01 829.458 275.03V249.38C829.458 238.86 833.698 224.74 853.698 224.74C871.498 224.74 877.088 235.4 877.088 249.38V266.1H844.368ZM777.578 291.17C780.798 285.26 796.228 255 805.378 237.71H780.118V225.89H822.158V234.97C820.298 239.01 802.158 275.03 795.208 288.14H822.498L821.138 299.96H777.568V291.17H777.578ZM753.168 265.52H749.608C740.968 265.52 735.368 268.55 735.368 278.35V279.5C735.368 285.41 737.748 289.73 743.678 289.73C750.458 289.73 753.168 285.55 753.168 275.03V265.52ZM767.918 285.84C767.918 290.6 767.918 297.37 768.258 299.96H754.358C754.018 298.37 753.338 295.35 753.338 294.34C750.458 299.24 745.368 301.11 738.928 301.11C726.048 301.11 720.958 291.17 720.958 279.78V278.48C720.958 260.9 734.518 255.57 750.118 255.57H752.828V245.2C752.828 239 751.808 235.4 745.878 235.4C739.948 235.4 738.588 239.15 738.588 244.33V245.77H723.668V244.47C723.668 233.95 728.418 224.73 746.388 224.73C762.488 224.73 767.918 232.66 767.918 244.18V285.84ZM632.968 247.37C632.968 233.1 632.968 229.36 632.798 225.9H647.208C647.718 228.06 647.718 230.08 647.888 232.53C650.598 227.63 655.688 224.75 662.978 224.75C670.268 224.75 674.678 227.2 676.708 232.96C679.588 228.64 684.168 224.75 693.148 224.75C702.128 224.75 710.098 228.5 710.098 242.91V299.97H694.838V245.36C694.838 239.88 693.308 236.43 687.718 236.43C680.768 236.43 679.078 241.33 679.078 248.97V299.98H663.818V245.8C663.818 238.45 661.448 236.43 656.528 236.43C649.578 236.43 648.048 241.47 648.048 249.11V299.98H632.958V247.37H632.968ZM602.788 265.52H599.228C590.578 265.52 584.988 268.55 584.988 278.35V279.5C584.988 285.41 587.368 289.73 593.298 289.73C600.078 289.73 602.788 285.55 602.788 275.03V265.52ZM617.538 285.84C617.538 290.6 617.538 297.37 617.878 299.96H603.978C603.638 298.37 602.958 295.35 602.958 294.34C600.078 299.24 594.988 301.11 588.548 301.11C575.668 301.11 570.578 291.17 570.578 279.78V278.48C570.578 260.9 584.138 255.57 599.738 255.57H602.448V245.2C602.448 239 601.428 235.4 595.498 235.4C589.568 235.4 588.208 239.15 588.208 244.33V245.77H573.288V244.47C573.288 233.95 578.038 224.73 596.008 224.73C612.108 224.73 617.538 232.66 617.538 244.18V285.84Z" fill="white"/>
</svg>
